<svg xmlns="http://www.w3.org/2000/svg" width="375" height="812" viewBox="0 0 375 812" role="img" aria-labelledby="title desc">
  <title id="title">Mockup móvil del panel CEAC</title><desc id="desc">Panel móvil con indicadores, gráfica y navegación inferior.</desc>
  <rect width="375" height="812" rx="28" fill="#f8fafc"/><rect width="375" height="70" rx="28" fill="#0f2a5f"/><circle cx="34" cy="35" r="19" fill="#f4c430"/><text x="64" y="41" font-family="Arial" font-size="17" font-weight="700" fill="white">Centro Educativo</text><text x="334" y="41" font-family="Arial" font-size="24" fill="white">☰</text>
  <text x="20" y="110" font-family="Arial" font-size="12" font-weight="700" fill="#1d4ed8">RESUMEN INSTITUCIONAL</text><text x="20" y="140" font-family="Arial" font-size="25" font-weight="700" fill="#1f2937">Hola, Administración</text>
  <g font-family="Arial"><rect x="20" y="165" width="160" height="105" rx="16" fill="white" stroke="#dbeafe"/><text x="36" y="195" font-size="12" fill="#475569">Estudiantes</text><text x="36" y="242" font-size="34" font-weight="700" fill="#1d4ed8">128</text><rect x="195" y="165" width="160" height="105" rx="16" fill="white" stroke="#dbeafe"/><text x="211" y="195" font-size="12" fill="#475569">Promedio</text><text x="211" y="242" font-size="34" font-weight="700" fill="#15803d">8.7</text></g>
  <rect x="20" y="290" width="335" height="270" rx="18" fill="white" stroke="#e2e8f0"/><text x="40" y="325" font-family="Arial" font-size="17" font-weight="700" fill="#1f2937">Promedio por curso</text><g fill="#1d4ed8"><rect x="52" y="450" width="34" height="75" rx="4"/><rect x="105" y="400" width="34" height="125" rx="4"/><rect x="158" y="375" width="34" height="150" rx="4"/><rect x="211" y="425" width="34" height="100" rx="4"/><rect x="264" y="355" width="34" height="170" rx="4"/></g>
  <text x="20" y="605" font-family="Arial" font-size="19" font-weight="700" fill="#1f2937">Acciones rápidas</text><rect x="20" y="625" width="335" height="52" rx="14" fill="#1d4ed8"/><text x="113" y="657" font-family="Arial" font-size="16" font-weight="700" fill="white">Nuevo estudiante</text><rect x="20" y="690" width="335" height="52" rx="14" fill="#eff6ff" stroke="#1d4ed8"/><text x="126" y="722" font-family="Arial" font-size="16" font-weight="700" fill="#1d4ed8">Ver cursos</text>
  <rect y="756" width="375" height="56" fill="white"/><g font-family="Arial" font-size="12" fill="#334155"><text x="24" y="790">⌂ Inicio</text><text x="104" y="790">▤ Cursos</text><text x="196" y="790">● Alumnos</text><text x="292" y="790">◆ Anuncios</text></g>
</svg>
